<svg width="180" height="58" viewBox="0 0 180 58" fill="none" xmlns="http://www.w3.org/2000/svg">
<g clip-path="url(#clip0_1_3)">
<path d="M38.6514 25.8804H27.9864V22.608C27.9864 21.078 27.8514 20.1096 27.576 19.6884C27.306 19.2708 26.8488 19.0584 26.2116 19.0584C25.5204 19.0584 24.9984 19.341 24.6456 19.9062C24.291 20.4714 24.1128 21.3246 24.1128 22.4712C24.1128 23.9436 24.3126 25.056 24.7104 25.8012C25.0938 26.5464 26.1738 27.4482 27.9558 28.5012C33.0678 31.536 36.2862 34.0254 37.6128 35.9712C38.9394 37.9152 39.6018 41.0544 39.6018 45.3816C39.6018 48.528 39.2364 50.8464 38.4966 52.3386C37.7604 53.829 36.3366 55.08 34.2306 56.088C32.1192 57.096 29.664 57.6 26.865 57.6C23.7906 57.6 21.1698 57.0204 18.9954 55.854C16.8228 54.6912 15.4008 53.2098 14.7294 51.408C14.0544 49.608 13.7214 47.0556 13.7214 43.7454V40.8546H24.3846V46.2276C24.3846 47.8836 24.5376 48.9492 24.8346 49.419C25.1334 49.8924 25.6644 50.1264 26.4294 50.1264C27.1944 50.1264 27.7614 49.8258 28.1358 49.2264C28.5084 48.627 28.6938 47.736 28.6938 46.5534C28.6938 43.9542 28.341 42.2532 27.63 41.4558C26.9028 40.6566 25.1118 39.3192 22.2552 37.4454C19.4004 35.5554 17.5104 34.182 16.5816 33.327C15.6564 32.4738 14.886 31.293 14.2794 29.781C13.6692 28.2726 13.3668 26.3448 13.3668 24.0012C13.3668 20.6172 13.7988 18.1476 14.6628 16.5834C15.5232 15.0192 16.92 13.797 18.8478 12.915C20.7738 12.033 23.103 11.592 25.83 11.592C28.8108 11.592 31.3506 12.0744 33.4512 13.0392C35.5536 14.0022 36.9432 15.2154 37.6254 16.6806C38.3076 18.144 38.6496 20.6334 38.6496 24.1398L38.6514 25.8804ZM63.0558 11.7036H46.4616L40.6044 57.5118H52.4772L53.1684 44.1522H57.276L57.8916 57.5118H69.6276L63.0576 11.7036H63.0558ZM52.9686 37.2816L55.134 22.7808L57.2976 37.2798L52.9686 37.2816Z" fill="#175CD3"/>
<path d="M23.4234 7.59419C20.3868 6.83819 11.2356 13.0968 10.5246 15.4962C10.6758 17.9946 13.68 20.0142 13.68 20.0142C13.68 20.0142 13.248 20.8278 20.466 16.3782C27.684 11.9322 26.5536 11.4048 26.5536 11.4048C26.5536 11.4048 25.101 8.01359 23.4234 7.59419Z" fill="#18418A"/>
<path d="M20.7756 7.6968C16.7958 9.0324 10.7964 13.4532 10.2222 15.3882C10.3122 16.8714 11.6982 20.0826 13.6674 20.0826C13.7844 20.0808 14.571 19.9152 14.8302 19.4958C16.4286 17.3754 20.3742 0.401404 20.7756 7.6968Z" fill="#212B55"/>
<path d="M20.1708 12.258L29.6676 0L10.035 5.8914L1.37341 19.6992L20.1708 12.258Z" fill="#233770"/>
<path d="M29.6676 0L20.1708 12.258L1.37341 19.6974L1.57861 20.2248L20.376 12.7872L29.8728 0.5292L29.6676 0Z" fill="#212B55"/>
<path d="M13.7952 7.24141C13.7448 7.26301 13.707 7.29181 13.6638 7.31701C13.4528 7.29474 13.2405 7.28632 13.0284 7.29181C11.5974 7.28821 8.87941 7.77241 7.55641 10.8828C6.60601 13.1202 6.96961 14.6772 7.26661 15.9282C7.52221 17.0082 7.70581 17.793 6.92461 18.6066C6.20101 19.3626 5.51521 19.6128 4.84921 19.8558C3.91681 20.1978 3.03841 20.5164 2.49841 22.1958L2.92141 22.3326C3.39661 20.8566 4.10401 20.5974 5.00041 20.2716C5.68081 20.025 6.45121 19.7406 7.24321 18.9144C8.19181 17.9244 7.96321 16.9524 7.69861 15.8238C7.41781 14.6358 7.06861 13.158 7.96861 11.0538C9.01261 8.59861 11.007 7.95241 12.3966 7.81561C12.6432 7.79041 12.8358 7.79401 12.9996 7.80661C12.519 8.30521 12.3966 8.87041 12.4848 9.18721C12.4848 9.18721 14.229 8.92081 16.2 7.30801C16.1964 7.31341 15.3684 6.49261 13.7952 7.24141Z" fill="#F6A019"/>
<path d="M2.79899 22.869C3.15359 22.815 3.40019 22.5054 3.34799 22.1742C3.29759 21.8412 2.97359 21.6162 2.61899 21.6702C2.26439 21.7242 2.01959 22.0338 2.06999 22.3668C2.11679 22.698 2.44619 22.923 2.79899 22.869Z" fill="#F6A019"/>
<path d="M3.2454 22.383C2.1456 22.0626 1.2204 22.9662 0.732602 24.0246C0.0378024 25.542 -0.176398 26.8722 0.149402 27.2754C0.473402 27.6804 1.0584 26.6904 1.2258 26.46C1.2258 26.46 1.2636 28.1376 1.7406 28.0692C2.2212 27.999 2.5092 26.8362 2.5092 26.8362C2.5092 26.8362 2.7072 27.9396 3.1716 28.0404C3.6324 28.1412 3.6234 26.6598 3.6234 26.6598C3.6234 26.6598 3.9834 28.0404 4.6386 27.7038C5.292 27.3618 4.3434 22.6998 3.2454 22.383Z" fill="#F6A019"/>
<path d="M95.895 32.7204V57.5694L91.2438 57.564L90.5184 56.178C88.4556 57.0834 85.9824 57.5352 83.0898 57.5352C80.361 57.5352 78.0354 57.0942 76.1094 56.2122C74.1834 55.3302 72.7848 54.108 71.9226 52.5438C71.4042 51.6078 71.0442 50.346 70.8354 48.7566C70.7454 48.033 70.6788 47.2446 70.65 46.3842V22.824C70.6788 22.0374 70.7328 21.3084 70.8138 20.6352C71.0172 18.9612 71.3862 17.6382 71.9226 16.6644C72.7866 15.1002 74.1816 13.878 76.1094 12.996C78.0354 12.114 80.3646 11.6766 83.0898 11.6766C86.0724 11.6766 88.6122 12.159 90.7128 13.1238C92.8116 14.0868 94.2048 15.3 94.887 16.7652C95.4738 18.0252 95.8086 20.0484 95.8878 22.8276L95.8914 22.941C95.9166 23.4378 95.913 23.8554 95.913 24.4098V25.8768H85.248V23.1318L85.2444 22.8276V22.6944C85.2444 21.1662 85.1094 20.1924 84.8376 19.7766C84.5658 19.359 84.1104 19.1466 83.4732 19.1466C82.7802 19.1466 82.26 19.4328 81.9072 19.9926C81.5832 20.5056 81.4068 21.2544 81.378 22.2426C81.3722 22.4358 81.3722 22.629 81.378 22.8222V46.3788C81.3701 46.5713 81.3701 46.7641 81.378 46.9566C81.4068 47.9466 81.5832 48.6972 81.9054 49.2066C82.26 49.7718 82.7802 50.0526 83.4714 50.0526C84.1104 50.0526 84.5622 49.8438 84.8376 49.4244C85.113 49.0068 85.2444 48.0348 85.2444 46.5048V39.6432H83.1564V32.7096H95.895V32.7204Z" fill="#175CD3"/>
<path d="M118.21 23.5098C117.351 23.5098 116.586 23.3424 115.916 23.0076C115.274 22.6932 114.697 22.2616 114.214 21.735L114.752 21.1626C115.18 21.6396 115.695 22.0266 116.293 22.32C116.89 22.6134 117.527 22.7574 118.21 22.7574C119.117 22.7574 119.833 22.5378 120.362 22.095C120.884 21.6522 121.151 21.0834 121.151 20.3922C121.151 19.9026 121.057 19.5066 120.863 19.2114C120.669 18.9094 120.409 18.6552 120.103 18.468C119.761 18.2591 119.404 18.0768 119.034 17.9226L117.243 17.1162C116.877 16.9425 116.52 16.7484 116.176 16.5348C115.799 16.3 115.475 15.9892 115.225 15.6222C114.97 15.246 114.84 14.7654 114.84 14.1786C114.84 13.6062 114.988 13.1004 115.288 12.6666C115.589 12.2292 115.996 11.8872 116.518 11.6442C117.034 11.4012 117.626 11.2788 118.282 11.2788C118.987 11.2788 119.619 11.4174 120.181 11.6982C120.744 11.979 121.201 12.3102 121.561 12.6936L121.097 13.23C120.746 12.8698 120.333 12.5759 119.878 12.3624C119.378 12.1334 118.833 12.0196 118.283 12.0294C117.506 12.0294 116.878 12.222 116.393 12.6018C116.159 12.7827 115.971 13.0167 115.845 13.2846C115.719 13.5526 115.658 13.8466 115.668 14.1426C115.668 14.598 115.776 14.9688 115.999 15.255C116.221 15.543 116.489 15.777 116.804 15.9534C117.121 16.1334 117.423 16.2882 117.707 16.4178L119.498 17.208C119.941 17.4006 120.348 17.622 120.724 17.8812C121.102 18.1368 121.408 18.4572 121.637 18.8478C121.871 19.2366 121.988 19.7352 121.988 20.3454C121.988 20.9412 121.833 21.4812 121.523 21.9654C121.214 22.4496 120.775 22.8294 120.206 23.103C119.639 23.3766 118.975 23.5098 118.21 23.5098ZM127.008 23.2956V12.204H123.246V11.4876H131.596V12.204H127.834V23.2956H127.008ZM137.639 23.5116C137.135 23.5116 136.649 23.436 136.179 23.2866C135.701 23.134 135.265 22.8735 134.905 22.5252C134.528 22.1688 134.23 21.681 134.008 21.0672C133.787 20.4498 133.677 19.6812 133.677 18.7632V11.4876H134.501V18.6696C134.501 19.71 134.645 20.529 134.941 21.1248C135.234 21.7224 135.619 22.1436 136.096 22.3884C136.573 22.635 137.088 22.7556 137.639 22.7556C138.213 22.7556 138.744 22.6332 139.234 22.3884C139.723 22.1454 140.117 21.7224 140.414 21.1248C140.715 20.529 140.864 19.71 140.864 18.6714V11.4876H141.635V18.7632C141.635 19.6812 141.523 20.4498 141.302 21.0672C141.08 21.681 140.783 22.1688 140.405 22.5252C140.029 22.8816 139.603 23.1372 139.127 23.2866C138.645 23.4364 138.142 23.5122 137.637 23.5116H137.639ZM145.071 23.2956V11.4876H147.814C149.033 11.4876 150.034 11.7306 150.824 12.2148C151.614 12.6972 152.201 13.3758 152.59 14.2488C152.978 15.12 153.171 16.1532 153.171 17.3466C153.171 18.5418 152.978 19.584 152.59 20.475C152.201 21.366 151.614 22.059 150.826 22.554C150.034 23.049 149.04 23.2956 147.832 23.2956H145.071ZM145.895 22.5972H147.726C148.799 22.5972 149.674 22.374 150.35 21.9258C151.025 21.4758 151.522 20.8566 151.839 20.0718C152.154 19.2798 152.312 18.3744 152.312 17.3466C152.312 16.3206 152.154 15.4206 151.839 14.6502C151.545 13.9056 151.024 13.2721 150.35 12.8394C149.674 12.4038 148.799 12.186 147.724 12.186H145.895V22.5972ZM157.739 23.2974V18.5148L154.211 11.493H155.088L156.879 15.183C157.082 15.6114 157.288 16.0362 157.491 16.4556C157.691 16.8732 157.905 17.3016 158.134 17.7444H158.206L158.872 16.4556C159.084 16.038 159.286 15.6114 159.48 15.183L161.271 11.493H162.115L158.567 18.5148V23.2974H157.739ZM113.288 40.338L116.942 28.656H120.114L123.768 40.338H120.974L120.256 37.5624H116.69L115.972 40.3398H113.287L113.288 40.338ZM117.515 34.425L117.227 35.4996H119.716L119.446 34.425C119.293 33.84 119.135 33.219 118.975 32.562C118.813 31.905 118.654 31.2732 118.499 30.663H118.427C118.285 31.2858 118.136 31.9194 117.988 32.571C117.839 33.2208 117.682 33.8418 117.515 34.425ZM125.041 40.338V28.656H129.037C129.848 28.656 130.579 28.7424 131.224 28.9152C131.868 29.0898 132.383 29.3832 132.764 29.8044C133.148 30.2202 133.34 30.8088 133.34 31.5594C133.34 32.0742 133.204 32.5764 132.935 33.0732C132.667 33.57 132.295 33.9066 131.818 34.0866V34.1586C132.415 34.3152 132.914 34.6176 133.315 35.0658C133.717 35.5158 133.915 36.1278 133.915 36.9018C133.915 37.701 133.713 38.3526 133.304 38.8548C132.898 39.357 132.354 39.7296 131.675 39.9726C130.991 40.2192 130.228 40.3398 129.382 40.3398L125.041 40.338ZM127.676 33.3324H128.911C129.555 33.3324 130.027 33.2064 130.316 32.9562C130.461 32.8332 130.576 32.6788 130.652 32.5047C130.728 32.3307 130.764 32.1416 130.756 31.9518C130.756 31.4964 130.608 31.1742 130.307 30.9852C130.007 30.7962 129.55 30.6972 128.927 30.6972H127.672V33.3324H127.676ZM127.676 38.295H129.164C130.61 38.295 131.332 37.7712 131.332 36.7182C131.332 36.2034 131.152 35.8362 130.793 35.6166C130.437 35.3952 129.893 35.2854 129.164 35.2854H127.676V38.295ZM135.882 40.338V28.656H140.094C140.917 28.656 141.669 28.7676 142.351 28.989C143.035 29.2086 143.577 29.583 143.982 30.1068C144.389 30.6342 144.59 31.3614 144.59 32.2938C144.59 33.1524 144.401 33.8598 144.025 34.416C143.649 34.9722 143.143 35.3862 142.513 35.6598L145.163 40.3362H142.205L139.966 36.1242H138.517V40.3362L135.882 40.338ZM138.517 34.0326H139.878C140.569 34.0326 141.102 33.8886 141.462 33.5952C141.827 33.3 142.009 32.868 142.009 32.2956C142.009 31.725 141.827 31.3236 141.464 31.095C141.1 30.8682 140.569 30.753 139.878 30.753H138.517V34.0326ZM151.614 40.5522C150.561 40.5522 149.638 40.3092 148.846 39.8196C148.05 39.33 147.431 38.628 146.983 37.7136C146.533 36.7956 146.309 35.7084 146.309 34.443C146.309 33.1632 146.533 32.0796 146.981 31.1886C147.39 30.3401 148.038 29.6295 148.846 29.1438C149.638 28.674 150.561 28.4364 151.614 28.4364C152.665 28.4364 153.587 28.674 154.381 29.1456C155.173 29.6154 155.795 30.3012 156.244 31.1958C156.694 32.0922 156.917 33.1722 156.917 34.4394C156.917 35.7066 156.694 36.7974 156.244 37.7082C155.795 38.6226 155.176 39.3264 154.381 39.816C153.585 40.3056 152.662 40.5522 151.614 40.5522ZM151.614 38.277C152.413 38.277 153.047 37.9296 153.511 37.2384C153.979 36.5472 154.21 35.6148 154.21 34.443C154.21 33.2712 153.976 32.3568 153.511 31.6998C153.304 31.3881 153.021 31.1343 152.689 30.962C152.357 30.7898 151.986 30.7048 151.612 30.7152C150.813 30.7152 150.179 31.0428 149.715 31.6998C149.251 32.3568 149.017 33.2712 149.017 34.443C149.017 35.613 149.251 36.5436 149.715 37.2384C150.179 37.9332 150.811 38.277 151.614 38.277ZM157.633 40.338L161.287 28.656H164.461L168.115 40.338H165.319L164.603 37.5624H161.035L160.319 40.3398L157.633 40.338ZM161.863 34.425L161.575 35.4996H164.065L163.796 34.425C163.633 33.8055 163.475 33.1844 163.323 32.562C163.161 31.905 163.004 31.2732 162.85 30.663H162.778L162.337 32.571C162.189 33.2208 162.031 33.8418 161.863 34.425ZM169.387 40.338V28.656H172.685C173.88 28.656 174.913 28.8594 175.784 29.268C176.656 29.673 177.336 30.303 177.818 31.1562C178.303 32.0076 178.546 33.1038 178.546 34.4448C178.546 35.784 178.306 36.8856 177.829 37.7568C177.383 38.5982 176.685 39.2783 175.831 39.7008C174.978 40.1238 173.977 40.3362 172.831 40.3362L169.387 40.338ZM172.022 38.2068H172.525C173.194 38.2068 173.776 38.0862 174.271 37.8504C174.767 37.6092 175.153 37.2186 175.428 36.6678C175.702 36.1188 175.838 35.379 175.838 34.4466C175.838 33.516 175.7 32.7816 175.428 32.2506C175.185 31.7516 174.776 31.3531 174.271 31.1238C173.718 30.8918 173.123 30.7789 172.525 30.7926H172.021L172.022 38.2068ZM119.45 57.5946C118.436 57.5946 117.549 57.3462 116.789 56.844C116.033 56.34 115.441 55.6308 115.015 54.711C114.592 53.793 114.379 52.7058 114.379 51.4512C114.379 50.1966 114.599 49.1166 115.034 48.2076C115.431 47.3455 116.065 46.6147 116.863 46.1016C117.646 45.6066 118.555 45.36 119.596 45.36C120.395 45.36 121.054 45.5112 121.576 45.819C122.094 46.1214 122.512 46.44 122.821 46.7766L122.337 47.331C122.021 46.9845 121.649 46.6942 121.235 46.4724C120.8 46.233 120.26 46.116 119.615 46.116C118.721 46.116 117.943 46.332 117.286 46.7694C116.614 47.2245 116.088 47.8656 115.774 48.6144C115.42 49.4064 115.245 50.355 115.245 51.4548C115.245 52.5402 115.412 53.4924 115.749 54.3042C116.082 55.1142 116.57 55.7442 117.207 56.187C117.846 56.628 118.613 56.8494 119.511 56.8494C120.047 56.8494 120.553 56.772 121.023 56.6154C121.495 56.4624 121.873 56.241 122.161 55.953V52.2792H119.331V51.5808H122.949V56.2554C122.582 56.6514 122.101 56.9736 121.507 57.222C120.91 57.474 120.227 57.5946 119.45 57.5946ZM125.973 57.384V45.576H126.797V56.6658H132.244V57.384H125.973ZM138.445 57.5946C137.5 57.5946 136.665 57.3426 135.936 56.835C135.207 56.3256 134.635 55.611 134.215 54.693C133.798 53.7732 133.585 52.686 133.585 51.4314C133.585 50.1894 133.794 49.113 134.215 48.2076C134.631 47.3004 135.205 46.5984 135.936 46.1016C136.676 45.6028 137.553 45.3439 138.445 45.36C139.399 45.36 140.242 45.6102 140.972 46.1034C141.701 46.5984 142.274 47.3004 142.693 48.2076C143.111 49.1166 143.32 50.1912 143.32 51.4314C143.32 52.686 143.111 53.7714 142.693 54.693C142.277 55.611 141.703 56.3256 140.972 56.835C140.23 57.346 139.346 57.6117 138.445 57.5946ZM138.445 56.844C139.244 56.844 139.943 56.619 140.542 56.1708C141.14 55.7208 141.606 55.0944 141.939 54.2808C142.274 53.4708 142.441 52.5186 142.441 51.4314C142.441 50.346 142.274 49.4046 141.937 48.6108C141.604 47.8152 141.14 47.2014 140.542 46.7658C139.933 46.326 139.197 46.0966 138.445 46.1124C137.646 46.1124 136.944 46.3302 136.346 46.7658C135.751 47.2014 135.283 47.8188 134.95 48.6108C134.617 49.4028 134.449 50.346 134.449 51.4314C134.449 52.5186 134.617 53.469 134.95 54.2826C135.286 55.0926 135.751 55.7262 136.346 56.1708C136.944 56.6208 137.642 56.844 138.445 56.844ZM146.023 57.384V45.576H149.213C150.408 45.576 151.358 45.8064 152.062 46.2672C152.768 46.728 153.121 47.4516 153.121 48.4434C153.121 49.0662 152.966 49.6062 152.656 50.0634C152.347 50.526 151.891 50.8446 151.295 51.0246V51.0966C152.059 51.2172 152.676 51.5178 153.14 52.0002C153.605 52.4844 153.839 53.1306 153.839 53.9442C153.839 55.0782 153.439 55.9368 152.647 56.5146C151.852 57.096 150.786 57.384 149.45 57.384H146.023ZM146.848 50.7708H148.891C150.097 50.7708 150.966 50.5728 151.497 50.1714C151.753 49.9841 151.96 49.7368 152.098 49.4513C152.237 49.1658 152.304 48.8506 152.293 48.5334C152.293 47.6946 152.012 47.106 151.45 46.7658C150.887 46.4238 150.064 46.2546 148.977 46.2546H146.844V50.7726H146.848V50.7708ZM146.848 56.7036H149.229C150.401 56.7036 151.326 56.484 152.006 56.0412C152.685 55.5984 153.027 54.9072 153.027 53.9622C153.027 53.1162 152.694 52.4844 152.032 52.0722C151.367 51.6618 150.433 51.4548 149.225 51.4548H146.844V56.7036H146.848ZM154.784 57.384L158.942 45.576H159.766L163.924 57.384H163.064L161.681 53.334H157.005L155.608 57.384H154.784ZM158.006 50.4342L157.255 52.6392H161.447L160.695 50.4342C160.454 49.7286 160.231 49.0536 160.011 48.4092C159.786 47.7271 159.578 47.0399 159.385 46.3482H159.313C159.122 47.0409 158.912 47.7282 158.683 48.4092C158.474 49.0536 158.247 49.7268 158.006 50.4342ZM165.8 57.384V45.576H166.624V56.6658H172.071V57.384H165.8Z" fill="#233770"/>
</g>
<defs>
<clipPath id="clip0_1_3">
<rect width="180" height="57.6" fill="white"/>
</clipPath>
</defs>
</svg>
